<mxfile host="app.diagrams.net" agent="Mozilla/5.0 (Windows NT 10.0; Win64; x64; rv:140.0) Gecko/20100101 Firefox/140.0" version="28.2.5">
  <diagram name="Page-1" id="yGEbEjSQ9hln3Bx4inEz">
    <mxGraphModel dx="1650" dy="961" grid="1" gridSize="10" guides="1" tooltips="1" connect="1" arrows="1" fold="1" page="1" pageScale="1" pageWidth="850" pageHeight="1100" math="0" shadow="0">
      <root>
        <mxCell id="0" />
        <mxCell id="1" parent="0" />
        <mxCell id="zkAmmM7Bx4LIPEx-Aipj-1" value="" style="rounded=0;whiteSpace=wrap;html=1;fillColor=none;" parent="1" vertex="1">
          <mxGeometry x="40" y="40" width="450" height="430" as="geometry" />
        </mxCell>
        <mxCell id="zkAmmM7Bx4LIPEx-Aipj-3" value="&lt;div&gt;&lt;font style=&quot;font-size: 14px;&quot;&gt;&lt;b&gt;Postgres DBMS-Server&lt;/b&gt;&lt;br&gt;&lt;/font&gt;&lt;/div&gt;&lt;div&gt;Logical Architecture of a PostgreSQL Server&lt;/div&gt;" style="rounded=0;whiteSpace=wrap;html=1;fillColor=#cce5ff;strokeColor=#36393d;" parent="1" vertex="1">
          <mxGeometry x="40" y="40" width="450" height="50" as="geometry" />
        </mxCell>
        <mxCell id="zkAmmM7Bx4LIPEx-Aipj-6" value="&lt;div&gt;&lt;font style=&quot;font-size: 14px;&quot;&gt;&lt;b&gt;Database Cluster&lt;/b&gt;&lt;/font&gt;&lt;/div&gt;&lt;div&gt;&lt;font style=&quot;font-size: 10px;&quot;&gt;Collection of Databases managed by one server&lt;/font&gt;&lt;/div&gt;" style="rounded=0;whiteSpace=wrap;html=1;" parent="1" vertex="1">
          <mxGeometry x="50" y="100" width="430" height="60" as="geometry" />
        </mxCell>
        <mxCell id="zkAmmM7Bx4LIPEx-Aipj-22" style="edgeStyle=orthogonalEdgeStyle;rounded=0;orthogonalLoop=1;jettySize=auto;html=1;exitX=0.5;exitY=0;exitDx=0;exitDy=0;entryX=0.5;entryY=1;entryDx=0;entryDy=0;" parent="1" source="zkAmmM7Bx4LIPEx-Aipj-9" target="zkAmmM7Bx4LIPEx-Aipj-6" edge="1">
          <mxGeometry relative="1" as="geometry" />
        </mxCell>
        <mxCell id="zkAmmM7Bx4LIPEx-Aipj-9" value="&lt;div&gt;&lt;font style=&quot;font-size: 14px;&quot;&gt;&lt;b&gt;Databases&lt;/b&gt;&lt;/font&gt;&lt;/div&gt;&lt;div&gt;Collections of tables, indexes, views, ...&lt;/div&gt;" style="rounded=0;whiteSpace=wrap;html=1;" parent="1" vertex="1">
          <mxGeometry x="50" y="200" width="430" height="60" as="geometry" />
        </mxCell>
        <mxCell id="zkAmmM7Bx4LIPEx-Aipj-21" style="edgeStyle=orthogonalEdgeStyle;rounded=0;orthogonalLoop=1;jettySize=auto;html=1;exitX=0.5;exitY=0;exitDx=0;exitDy=0;" parent="1" source="zkAmmM7Bx4LIPEx-Aipj-10" target="zkAmmM7Bx4LIPEx-Aipj-9" edge="1">
          <mxGeometry relative="1" as="geometry" />
        </mxCell>
        <mxCell id="zkAmmM7Bx4LIPEx-Aipj-10" value="&lt;div&gt;&lt;font style=&quot;font-size: 14px;&quot;&gt;&lt;b&gt;Schemas&lt;/b&gt;&lt;/font&gt;&lt;/div&gt;&lt;div&gt;Namespaces organizing database objects&lt;/div&gt;" style="rounded=0;whiteSpace=wrap;html=1;" parent="1" vertex="1">
          <mxGeometry x="50" y="300" width="430" height="60" as="geometry" />
        </mxCell>
        <mxCell id="zkAmmM7Bx4LIPEx-Aipj-18" style="edgeStyle=orthogonalEdgeStyle;rounded=0;orthogonalLoop=1;jettySize=auto;html=1;exitX=0.5;exitY=0;exitDx=0;exitDy=0;entryX=0.5;entryY=1;entryDx=0;entryDy=0;" parent="1" source="zkAmmM7Bx4LIPEx-Aipj-12" target="zkAmmM7Bx4LIPEx-Aipj-10" edge="1">
          <mxGeometry relative="1" as="geometry" />
        </mxCell>
        <mxCell id="zkAmmM7Bx4LIPEx-Aipj-12" value="&lt;div&gt;&lt;font style=&quot;font-size: 14px;&quot;&gt;&lt;b&gt;Tables&lt;/b&gt;&lt;/font&gt;&lt;/div&gt;&lt;div&gt;Data container&lt;/div&gt;" style="rounded=0;whiteSpace=wrap;html=1;" parent="1" vertex="1">
          <mxGeometry x="50" y="400" width="100" height="60" as="geometry" />
        </mxCell>
        <mxCell id="zkAmmM7Bx4LIPEx-Aipj-17" style="edgeStyle=orthogonalEdgeStyle;rounded=0;orthogonalLoop=1;jettySize=auto;html=1;exitX=0.5;exitY=0;exitDx=0;exitDy=0;entryX=0.5;entryY=1;entryDx=0;entryDy=0;" parent="1" source="zkAmmM7Bx4LIPEx-Aipj-13" target="zkAmmM7Bx4LIPEx-Aipj-10" edge="1">
          <mxGeometry relative="1" as="geometry" />
        </mxCell>
        <mxCell id="zkAmmM7Bx4LIPEx-Aipj-13" value="&lt;div&gt;&lt;font style=&quot;font-size: 14px;&quot;&gt;&lt;b&gt;Views&lt;/b&gt;&lt;/font&gt;&lt;/div&gt;&lt;div&gt;Virtual tables&lt;/div&gt;" style="rounded=0;whiteSpace=wrap;html=1;" parent="1" vertex="1">
          <mxGeometry x="160" y="400" width="100" height="60" as="geometry" />
        </mxCell>
        <mxCell id="zkAmmM7Bx4LIPEx-Aipj-19" style="edgeStyle=orthogonalEdgeStyle;rounded=0;orthogonalLoop=1;jettySize=auto;html=1;exitX=0.5;exitY=0;exitDx=0;exitDy=0;entryX=0.5;entryY=1;entryDx=0;entryDy=0;" parent="1" source="zkAmmM7Bx4LIPEx-Aipj-14" target="zkAmmM7Bx4LIPEx-Aipj-10" edge="1">
          <mxGeometry relative="1" as="geometry" />
        </mxCell>
        <mxCell id="zkAmmM7Bx4LIPEx-Aipj-14" value="&lt;div&gt;&lt;font style=&quot;font-size: 14px;&quot;&gt;&lt;b&gt;Functions&lt;/b&gt;&lt;/font&gt;&lt;/div&gt;&lt;div&gt;Executable SQL&lt;/div&gt;" style="rounded=0;whiteSpace=wrap;html=1;" parent="1" vertex="1">
          <mxGeometry x="270" y="400" width="100" height="60" as="geometry" />
        </mxCell>
        <mxCell id="zkAmmM7Bx4LIPEx-Aipj-20" style="edgeStyle=orthogonalEdgeStyle;rounded=0;orthogonalLoop=1;jettySize=auto;html=1;exitX=0.5;exitY=0;exitDx=0;exitDy=0;entryX=0.5;entryY=1;entryDx=0;entryDy=0;" parent="1" source="zkAmmM7Bx4LIPEx-Aipj-15" target="zkAmmM7Bx4LIPEx-Aipj-10" edge="1">
          <mxGeometry relative="1" as="geometry" />
        </mxCell>
        <mxCell id="zkAmmM7Bx4LIPEx-Aipj-15" value="&lt;div&gt;&lt;font style=&quot;font-size: 14px;&quot;&gt;&lt;b&gt;Indexes&lt;/b&gt;&lt;/font&gt;&lt;/div&gt;&lt;div&gt;Lookup Tables&lt;/div&gt;" style="rounded=0;whiteSpace=wrap;html=1;" parent="1" vertex="1">
          <mxGeometry x="380" y="400" width="100" height="60" as="geometry" />
        </mxCell>
      </root>
    </mxGraphModel>
  </diagram>
</mxfile>
